<?xml version="1.0" encoding="utf-8"?>
<!-- Generator: Adobe Illustrator 15.1.0, SVG Export Plug-In . SVG Version: 6.00 Build 0)  -->
<!DOCTYPE svg PUBLIC "-//W3C//DTD SVG 1.1//EN" "http://www.w3.org/Graphics/SVG/1.1/DTD/svg11.dtd">
<svg version="1.1" id="Layer_1" xmlns:sketch="http://www.bohemiancoding.com/sketch/ns"
	 xmlns="http://www.w3.org/2000/svg" xmlns:xlink="http://www.w3.org/1999/xlink" x="0px" y="0px" width="16px" height="16px"
	 viewBox="0 0 16 16" enable-background="new 0 0 16 16" xml:space="preserve">
<title></title>
<g id="Icons_with_numbers">
	<g id="Group" transform="translate(-192.000000, -336.000000)">
		<path id="Rectangle_317" fill="#85C4D3" d="M195,337v3h10v-3H195z M195.002,336h9.996c0.547,0,1.002,0.448,1.002,1.001v13.998
			c0,0.556-0.449,1.001-1.002,1.001h-9.996c-0.547,0-1.002-0.448-1.002-1.001v-13.998C194,336.445,194.449,336,195.002,336z
			 M196,342v2h2v-2H196z M199,342v2h2v-2H199z M202,342v2h2v-2H202z M196,345v2h2v-2H196z M199,345v2h2v-2H199z M202,345v2h2v-2H202
			z M196,348v2h2v-2H196z M199,348v2h2v-2H199z M202,348v2h2v-2H202z"/>
	</g>
</g>
</svg>
