<?xml version="1.0" encoding="utf-8"?>
<!-- Generator: Adobe Illustrator 15.1.0, SVG Export Plug-In . SVG Version: 6.00 Build 0)  -->
<!DOCTYPE svg PUBLIC "-//W3C//DTD SVG 1.1//EN" "http://www.w3.org/Graphics/SVG/1.1/DTD/svg11.dtd">
<svg version="1.1" id="Layer_1" xmlns="http://www.w3.org/2000/svg" xmlns:xlink="http://www.w3.org/1999/xlink" x="0px" y="0px"
	 width="128px" height="128px" viewBox="0 0 128 128" enable-background="new 0 0 128 128" xml:space="preserve">
<path fill="#EE7240" d="M112,3.89c4.41-2.92,9.83-3.14,14.939-2.86c0.601,5.35-0.08,11.1-3.271,15.59
	c-3.29,4.53-9.38,6.56-14.778,5.35c-1.16-0.21-2.291-0.93-2.642-2.11C104.391,14.04,106.88,7.21,112,3.89z"/>
<path fill="#EE7240" d="M91.04,12.07c2.72-4.34,7.271-7.31,12.21-8.51c0.45,3.29,0.74,6.74-0.689,9.85
	c-1.25,2.77-0.721,5.76-0.17,8.62c-0.58,3.43-3.701,6.91-7.42,6.63C89.76,25.2,87.99,17.5,91.04,12.07z"/>
<path fill="#EE7240" d="M76.52,39.4c-3.979-8.07,0.84-18.27,8.312-22.47c-0.021,6.13,2.149,11.87,5.33,17
	c-0.79,4.13-3.591,8.08-7.591,9.59C79.76,44.49,77.721,41.48,76.52,39.4z"/>
<path fill="#EE7240" d="M115.93,24.9c2.541-0.96,5.301-0.49,7.95-0.5c0.05,4.27-2.79,7.92-5.72,10.74
	c-5.061,5.04-14.2,3.9-18.5-1.56c-1.61-4.36,4.16-9.23,8.359-7.72C110.7,26.64,113.4,25.79,115.93,24.9z"/>
<path fill="#EE7240" d="M63.33,53.57c-4.6-7.99,0.16-18.82,7.91-22.92c0.199,5.85,1.869,11.57,5.3,16.35
	c-0.39,4.65-3.96,9.25-8.601,10.35C65.82,57.09,64.44,55.21,63.33,53.57z"/>
<path fill="#EE7240" d="M84.1,46.92c0.42-5.01,5.44-8.29,10-9.15c4.99,3.4,10.83,5.25,16.881,5.43c-3.729,6.11-10.801,10.17-18,9.69
	C89.46,52.28,85.37,50.49,84.1,46.92z"/>
<path fill="#EE7240" d="M47.9,61.03c0.05-6.89,3.81-13.6,9.82-17.03c-0.05,6.12,2.17,11.83,5.31,16.96c-0.86,4.57-4.54,10-9.68,9.76
	C49.97,68.76,48.14,64.811,47.9,61.03z"/>
<path fill="#EE7240" d="M71.07,58.21c1.56-3.63,5.3-5.96,9.039-6.82c1.42,0.01,2.439,1.19,3.649,1.77c3.91,2.5,8.632,3.28,13.2,3.36
	c-1.75,5.01-6.979,7.99-11.87,9.339C80.43,67.37,74.879,66.109,71.6,62.4C70.42,61.29,70.23,59.58,71.07,58.21z"/>
<path fill="#EE7240" d="M43.36,58.18l0.79-0.13c0.32,5.69,1.85,11.24,5.2,15.9c-0.05,4.659-3.83,9.28-8.37,10.489
	c-3.93-0.699-5.75-5.109-6.51-8.601C33.89,68.98,37.4,61.73,43.36,58.18z"/>
<path fill="#EE7240" d="M57.33,72.24c1.44-4.141,5.69-6.41,9.68-7.54c4.78,3.67,10.73,5.42,16.721,5.47
	c-4.09,7.76-14.91,12.57-22.939,8.061C58.86,76.96,56.1,74.891,57.33,72.24z"/>
<path fill="#EE7240" d="M43.52,87.99c-0.1-4.7,4.49-8.04,8.59-9.29c1.46-0.86,2.74,0.569,3.95,1.159
	c4.12,2.899,9.24,3.57,14.14,3.951c-3.351,6.108-10.31,9.83-17.2,9.76C49.28,93.2,45.33,91.43,43.52,87.99z"/>
<path fill="#EE7240" d="M33.02,91c1.84-2.141,4.72-2.7,7.29-3.48c-0.92,2.801-1.3,6.07-3.81,7.99C25.7,105.96,15.46,117,4.41,127.16
	c-1.08-1.35-2.73-2.37-3.33-4.03C11.56,112.26,22.44,101.77,33.02,91z"/>
</svg>
