<?xml version="1.0" encoding="utf-8"?>
<!-- Generator: Adobe Illustrator 15.1.0, SVG Export Plug-In . SVG Version: 6.00 Build 0)  -->
<!DOCTYPE svg PUBLIC "-//W3C//DTD SVG 1.1//EN" "http://www.w3.org/Graphics/SVG/1.1/DTD/svg11.dtd">
<svg version="1.1" id="Layer_1" xmlns="http://www.w3.org/2000/svg" xmlns:xlink="http://www.w3.org/1999/xlink" x="0px" y="0px"
	 width="128px" height="128px" viewBox="0 0 128 128" enable-background="new 0 0 128 128" xml:space="preserve">
<path fill="#4BA848" d="M36.76,13.37c9.8-7.51,21.71-12.85,34.2-13.18C83.439-0.14,95.609,5,104.98,13.07
	c0.959,0.67,1.74,1.79,2.959,1.97c3.109-2.17,5.74-5.02,8.021-8.04c1.83-2.38,2.79-5.97,6.11-6.68c2.74-0.88,5.13,1.55,5.93,3.98
	v0.48c-2.07,7.21-7.609,12.77-13.2,17.479c1.88,3.34,4.49,6.18,6.33,9.54c5.62,9.61,7.99,21.16,6.03,32.16
	c-1.85,9.939-6.34,19.271-12.5,27.26c-6-4.648-9.79-11.568-13.939-17.818c-2.381-3.301-3.111-7.74-5.611-10.78
	c-9.139,1.88-18.83,0.98-27.6-2.14c-2.96-8.81-4.27-18.65-1.869-27.76C57.31,29.1,49.37,24.57,42.3,18.82
	C40.32,17.15,38.13,15.62,36.76,13.37z"/>
<path fill="#4BA848" d="M16.73,39.64c3.98-7.06,11.09-11.48,18.42-14.4c6.42,4.56,12.63,9.53,19.89,12.77
	c0.14,4.38-0.14,8.79,0.73,13.12c-11.95,9.55-31.09,10.47-42.52-0.44C12.74,46.82,14.94,43,16.73,39.64z"/>
<path fill="#4BA848" d="M1.65,76.43c1.88-5.81,5.51-10.99,10.18-14.898c4.36,2.729,9.07,4.988,14.18,5.84
	c-0.49,1.93-1.36,3.72-2.18,5.521C21.54,78.67,21,84.98,21.56,91.13c-6.32,2.71-14.12,1.05-20.51-1.35
	C1.29,85.34,0.17,80.75,1.65,76.43z"/>
<path fill="#4BA848" d="M37.11,68.07c7.42-0.471,14.35-3.29,20.95-6.43c0.59,2.1,1.4,4.129,2.16,6.18c2.04,0.76,4.08,1.52,6.17,2.13
	c-3.23,6.59-5.842,13.55-6.552,20.93c-7.58,6.11-18.43,8.181-27.6,4.86C28.9,86.51,31.1,75.76,37.11,68.07z"/>
<path fill="#4BA848" d="M72.08,106.84c-5.12-11.189-2.641-25.029,4.75-34.6c4.32,0.82,8.73,0.67,13.1,0.609
	c3.35,6.971,7.65,13.461,12.7,19.311c-2.989,11.38-12.739,21.25-24.61,22.84C75.141,113.24,73.62,109.76,72.08,106.84z"/>
<path fill="#4BA848" d="M6.54,101.25c5.73,1.18,11.62,0.93,17.32-0.32c0.77,1.34,1.85,2.42,3.19,3.211
	c-0.74,4.26-1.51,8.579-0.88,12.909c-0.03,1.62,0.86,3.41,0.09,4.931c-6.64,3.16-14.48,3.16-21.46,1.17
	C2.98,116.03,2.59,107.73,6.54,101.25z"/>
<path fill="#4BA848" d="M51.52,105.34c3.2-0.64,5.94-2.55,9.09-3.33c0.89,5.08,3.1,9.801,5.85,14.131
	c-4.43,5.329-10.58,9.42-17.41,10.84c-3.6,0.311-7.23-0.141-10.84-0.029c-2.52-6.311-3.5-13.391-1.91-20.051l0.6-0.461
	C41.8,106.82,46.77,106.7,51.52,105.34z"/>
</svg>
