<?xml version="1.0" encoding="utf-8"?>
<!-- Generator: Adobe Illustrator 15.1.0, SVG Export Plug-In . SVG Version: 6.00 Build 0)  -->
<!DOCTYPE svg PUBLIC "-//W3C//DTD SVG 1.1//EN" "http://www.w3.org/Graphics/SVG/1.1/DTD/svg11.dtd">
<svg version="1.1" id="Livello_1" xmlns="http://www.w3.org/2000/svg" xmlns:xlink="http://www.w3.org/1999/xlink" x="0px" y="0px"
	 width="141.732px" height="141.732px" viewBox="0 0 141.732 141.732" enable-background="new 0 0 141.732 141.732"
	 xml:space="preserve">
<path fill="#FDE294" d="M28.584,131.094v-16.056c0-4.433-3.34-8.021-7.461-8.021s-7.462,3.59-7.462,8.021v16.056
	c0,4.434,3.341,8.022,7.462,8.022S28.584,135.523,28.584,131.094"/>
<path fill="#F3CC73" d="M53.456,131.094V88.286c0-4.434-3.341-8.021-7.461-8.021c-4.121,0-7.462,3.593-7.462,8.021v42.809
	c0,4.434,3.341,8.022,7.462,8.022C50.115,139.117,53.456,135.523,53.456,131.094"/>
<path fill="#E7B14D" d="M78.328,131.094V61.532c0-4.433-3.341-8.025-7.462-8.025s-7.461,3.598-7.461,8.025v69.562
	c0,4.434,3.34,8.022,7.461,8.022S78.328,135.523,78.328,131.094"/>
<path fill="#DA9422" d="M103.199,131.094V34.778c0-4.432-3.341-8.024-7.461-8.024c-4.121,0-7.462,3.598-7.462,8.024v96.312
	c0,4.438,3.341,8.026,7.462,8.026C99.858,139.116,103.199,135.523,103.199,131.094"/>
<path fill="#D18005" d="M128.071,131.094V8.025c0-4.434-3.342-8.025-7.461-8.025c-4.121,0-7.463,3.598-7.463,8.025V131.09
	c0,4.438,3.342,8.026,7.463,8.026C124.729,139.117,128.071,135.523,128.071,131.094"/>
<g id="Livello_1_1_">
</g>
</svg>
