<?xml version="1.0" encoding="utf-8"?>
<!-- Generator: Adobe Illustrator 15.1.0, SVG Export Plug-In . SVG Version: 6.00 Build 0)  -->
<!DOCTYPE svg PUBLIC "-//W3C//DTD SVG 1.1//EN" "http://www.w3.org/Graphics/SVG/1.1/DTD/svg11.dtd">
<svg version="1.1" id="Layer_1" xmlns="http://www.w3.org/2000/svg" xmlns:xlink="http://www.w3.org/1999/xlink" x="0px" y="0px"
	 width="512px" height="512px" viewBox="0 0 512 512" enable-background="new 0 0 512 512" xml:space="preserve">
<g>
	<path fill="#F2E0A8" d="M508.701,483.633L351.5,218.033V18.167C351.5,7.9,342.834-0.5,332.167-0.5s-19.333,8.267-19.333,18.667
		v204.8c0,2.4,0.799,4.8,1.733,7.066c-10.134-14.8-27.468-24.533-47.2-24.533c-31.333,0-56.667,24.4-56.667,54.667
		c0,22.399,14,42,33.867,50h-96.001l46.667-78c1.6-2.8,2.8-6,2.8-9.2v-40.533c5.333,4.267,13.333,6.799,21.466,6.799
		c20.4,0,36.667-15.866,36.667-35.466c0-19.601-16.267-35.467-36.667-35.467c-8.133,0-16.133,2.534-21.466,6.8V18.167
		C198.034,7.9,189.367-0.5,178.7-0.5s-19.333,8.267-19.333,18.667v199.867L2.301,483.633c-3.333,5.734-3.467,12.801,0,18.534
		C5.767,507.9,11.9,511.5,18.833,511.5H255.5h236.667c6.799,0,13.066-3.466,16.534-9.333
		C512.167,496.566,512.034,489.367,508.701,483.633z M290.436,310.167c19.864-8,33.864-27.733,33.864-50
		c0-7.601-1.599-14.934-4.532-21.467l41.332,71.467H290.436z"/>
	<path fill="#F2E0A8" d="M267.633,85.634c16,0,28.936-12.534,28.936-27.867c0-15.467-12.936-27.867-28.936-27.867
		c-15.999,0-28.933,12.534-28.933,27.867C238.567,73.1,251.634,85.634,267.633,85.634z"/>
</g>
</svg>
